<?xml version="1.0" encoding="UTF-8" standalone="no" ?>
<!DOCTYPE svg PUBLIC "-//W3C//DTD SVG 1.1//EN" "http://www.w3.org/Graphics/SVG/1.1/DTD/svg11.dtd">
<svg xmlns="http://www.w3.org/2000/svg" xmlns:xlink="http://www.w3.org/1999/xlink" version="1.1" width="1080" height="1080" viewBox="0 0 1080 1080" xml:space="preserve">
<desc>Created with Fabric.js 5.2.4</desc>
<defs>
</defs>
<g transform="matrix(1 0 0 1 540 540)" id="2b720251-a955-41d4-bcae-9f5c09a0aff0"  >
<rect style="stroke: none; stroke-width: 1; stroke-dasharray: none; stroke-linecap: butt; stroke-dashoffset: 0; stroke-linejoin: miter; stroke-miterlimit: 4; fill: rgb(255,255,255); fill-rule: nonzero; opacity: 1; visibility: hidden;" vector-effect="non-scaling-stroke"  x="-540" y="-540" rx="0" ry="0" width="1080" height="1080" />
</g>
<g transform="matrix(1 0 0 1 540 540)" id="58bcdf03-fc23-4895-9e52-9fac50a5ef01"  >
</g>
<g transform="matrix(1 0 0 1 540 540)" id="741442f3-5235-4a88-9c20-91099d2997df"  >
<path style="stroke: rgb(0,0,0); stroke-width: 0; stroke-dasharray: none; stroke-linecap: butt; stroke-dashoffset: 0; stroke-linejoin: miter; stroke-miterlimit: 4; fill: rgb(247,109,109); fill-rule: nonzero; opacity: 1;" vector-effect="non-scaling-stroke"  transform=" translate(-256, -261.08)" d="M 47.6 300.4 L 228.3 469.1 C 235.8 476.1 245.70000000000002 480 256 480 C 266.29999999999995 480 276.2 476.1 283.7 469.1 L 464.4 300.4 C 494.79999999999995 272.09999999999997 512 232.39999999999998 512 190.89999999999998 L 512 185.09999999999997 C 512 115.19999999999996 461.5 55.599999999999966 392.6 44.099999999999966 C 347 36.5 300.6 51.4 268 84 L 256 96 L 244 84 C 211.4 51.4 165 36.5 119.4 44.1 C 50.5 55.6 0 115.2 0 185.1 L 0 190.9 C 0 232.4 17.2 272.1 47.6 300.4 z" stroke-linecap="round" />
</g>
</svg>