<?xml version="1.0" standalone="no"?>
<!DOCTYPE svg PUBLIC "-//W3C//DTD SVG 20010904//EN"
 "http://www.w3.org/TR/2001/REC-SVG-20010904/DTD/svg10.dtd">
<svg version="1.0" xmlns="http://www.w3.org/2000/svg"
 width="512.000000pt" height="512.000000pt" viewBox="0 0 512.000000 512.000000"
 preserveAspectRatio="xMidYMid meet">

<g transform="translate(0.000000,512.000000) scale(0.100000,-0.100000)"
fill="#000000" stroke="none">
<path d="M390 5104 c-30 -8 -80 -26 -110 -41 -72 -35 -188 -151 -223 -223 -61
-126 -57 23 -57 -2280 0 -2303 -4 -2154 57 -2280 35 -72 151 -188 223 -223
126 -61 -23 -57 2280 -57 2303 0 2154 -4 2280 57 72 35 188 151 223 223 61
126 57 -23 57 2280 0 2303 4 2154 -57 2280 -35 72 -151 188 -223 223 -127 61
23 57 -2285 56 -1816 0 -2118 -2 -2165 -15z m1473 -2016 c13 -29 57 -137 98
-240 41 -103 76 -187 79 -187 3 0 48 108 100 239 l95 240 182 0 182 0 -103
-212 c-57 -117 -142 -292 -190 -389 l-86 -177 0 -181 0 -181 -180 0 -180 0 0
180 0 180 -190 387 c-104 212 -190 388 -190 390 0 1 81 3 180 3 l180 0 23 -52z
m1392 -172 c122 -38 206 -118 241 -229 21 -69 30 -266 15 -350 -33 -191 -120
-291 -295 -342 -88 -26 -328 -17 -409 14 -163 64 -235 182 -244 401 -8 164 19
315 69 391 30 44 127 93 238 119 102 24 302 22 385 -4z m-2365 -343 c40 -192
77 -352 81 -357 13 -15 21 18 94 372 l69 332 178 0 178 0 -5 -22 c-4 -13 -66
-219 -139 -458 l-132 -435 -239 0 -238 0 -139 455 c-76 250 -138 456 -138 458
0 1 80 2 178 2 l179 0 73 -347z m3100 37 c0 -297 1 -311 20 -330 23 -23 102
-27 176 -9 l44 11 0 319 0 319 170 0 170 0 0 -460 0 -460 -138 0 -138 0 -18
75 -18 75 -55 -50 c-97 -89 -203 -127 -322 -117 -93 9 -138 24 -177 60 -49 45
-54 92 -54 520 l0 357 170 0 170 0 0 -310z"/>
<path d="M2946 2695 c-22 -22 -31 -94 -31 -245 0 -114 3 -141 20 -175 23 -47
54 -65 112 -65 67 0 98 34 113 123 15 88 8 258 -13 308 -8 20 -25 44 -38 53
-31 21 -141 22 -163 1z"/>
</g>
</svg>
